<svg width="390" height="270" viewBox="0 0 390 270" xmlns="http://www.w3.org/2000/svg" lang="en" xml:lang="en"><rect x="2" y="2" stroke-width="4" rx="6" width="386" height="266" stroke="rgba(65,132,228,0.4)" fill="#22272e"/><g font-weight="600" font-size="110pt" font-family="Verdana,Geneva,DejaVu Sans,sans-serif" text-rendering="geometricPrecision"><text x="872" y="301" lengthAdjust="spacingAndGlyphs" textLength="1427" transform="scale(0.123)" fill="#539bf5">🔤 Top Languages</text><svg x="15" y="15" width="25" height="25" viewBox="0 0 16 16"><path fill="#ffffff" fill-rule="evenodd" d="M8 0C3.58 0 0 3.58 0 8c0 3.54 2.29 6.53 5.47 7.59.4.07.55-.17.55-.38 0-.19-.01-.82-.01-1.49-2.01.37-2.53-.49-2.69-.94-.09-.23-.48-.94-.82-1.13-.28-.15-.68-.52-.01-.53.63-.01 1.08.58 1.23.82.72 1.21 1.87.87 2.33.66.07-.52.28-.87.51-1.07-1.78-.2-3.64-.89-3.64-3.95 0-.87.31-1.59.82-2.15-.08-.2-.36-1.02.08-2.12 0 0 .67-.21 2.2.82.64-.18 1.32-.27 2-.27.68 0 1.36.09 2 .27 1.53-1.04 2.2-.82 2.2-.82.44 1.1.16 1.92.08 2.12.51.56.82 1.27.82 2.15 0 3.07-1.87 3.75-3.65 3.95.29.25.54.73.54 1.48 0 1.07-.01 1.93-.01 2.2 0 .21.15.46.55.38A8.013 8.013 0 0016 8c0-4.42-3.58-8-8-8z"/></svg><svg x="350" y="15" width="25" height="25" viewBox="0 0 16 16"><path fill="#ffffff" fill-rule="evenodd" d="M8 0C3.58 0 0 3.58 0 8c0 3.54 2.29 6.53 5.47 7.59.4.07.55-.17.55-.38 0-.19-.01-.82-.01-1.49-2.01.37-2.53-.49-2.69-.94-.09-.23-.48-.94-.82-1.13-.28-.15-.68-.52-.01-.53.63-.01 1.08.58 1.23.82.72 1.21 1.87.87 2.33.66.07-.52.28-.87.51-1.07-1.78-.2-3.64-.89-3.64-3.95 0-.87.31-1.59.82-2.15-.08-.2-.36-1.02.08-2.12 0 0 .67-.21 2.2.82.64-.18 1.32-.27 2-.27.68 0 1.36.09 2 .27 1.53-1.04 2.2-.82 2.2-.82.44 1.1.16 1.92.08 2.12.51.56.82 1.27.82 2.15 0 3.07-1.87 3.75-3.65 3.95.29.25.54.73.54 1.48 0 1.07-.01 1.93-.01 2.2 0 .21.15.46.55.38A8.013 8.013 0 0016 8c0-4.42-3.58-8-8-8z"/></svg><g transform="translate(0, 60)" fill="#adbac7"><g transform="translate(15, 0)"><g transform="scale(0.095)"><text x="0" y="132" textLength="3652" lengthAdjust="spacingAndGlyphs">Language Distribution in Public Repositories</text></g></g><g transform="translate(210, 21)"><circle cx="71" cy="71" r="71" fill="#ffffff"/></g><g transform="translate(211, 22)"><g><path fill-rule="evenodd" fill="#e34c26" d="M 0.0,70.00000000000001 A 70 70 0 1 1 86.70300890325511 137.97800742576808 L 70,70 Z"/><path fill-rule="evenodd" fill="#E3F171" d="M 86.70300890325511,137.97800742576808 A 70 70 0 0 1 40.249359577338 133.36323377512758 L 70,70 Z"/><path fill-rule="evenodd" fill="#302B6D" d="M 40.249359577338,133.36323377512758 A 70 70 0 0 1 9.62435954069057 105.42290274847896 L 70,70 Z"/><path fill-rule="evenodd" fill="#00ADD8" d="M 9.62435954069057,105.42290274847896 A 70 70 0 0 1 4.967589733502621 95.89952924147399 L 70,70 Z"/><path fill-rule="evenodd" fill="#3178c6" d="M 4.967589733502621,95.89952924147399 A 70 70 0 0 1 2.7866057908541393 89.55401848434121 L 70,70 Z"/><path fill-rule="evenodd" fill="#dea584" d="M 2.7866057908541393,89.55401848434121 A 70 70 0 0 1 1.2282342772958117 83.05542949816241 L 70,70 Z"/><path fill-rule="evenodd" fill="#ec915c" d="M 1.2282342772958117,83.05542949816241 A 70 70 0 0 1 0.5442526660180818 78.71201252742816 L 70,70 Z"/><path fill-rule="evenodd" fill="#f1e05a" d="M 0.5442526660180818,78.71201252742816 A 70 70 0 0 1 0.20758015160276955 75.38684803062505 L 70,70 Z"/><path fill-rule="evenodd" fill="#959da5" d="M 0.20758015160276955,75.38684803062505 A 70 70 0 0 1 0.0 70.00000000000003 L 70,70 Z"/><animateTransform attributeName="transform" attributeType="XML" type="rotate" from="0 70 70" to="360 70 70" dur="10s" repeatCount="indefinite"/></g></g><g transform="translate(15, 21)"><rect x="0.5" y="0.5" rx="2" width="15" height="15" fill="#e34c26" stroke-width="1" stroke="#ffffff"/><text transform="scale(0.095)" x="263" y="132" textLength="1142" lengthAdjust="spacingAndGlyphs">HTML 71.17%</text></g><g transform="translate(15, 42)"><rect x="0.5" y="0.5" rx="2" width="15" height="15" fill="#E3F171" stroke-width="1" stroke="#ffffff"/><text transform="scale(0.095)" x="263" y="132" textLength="1204" lengthAdjust="spacingAndGlyphs">Pascal 10.82%</text></g><g transform="translate(15, 63)"><rect x="0.5" y="0.5" rx="2" width="15" height="15" fill="#302B6D" stroke-width="1" stroke="#ffffff"/><text transform="scale(0.095)" x="263" y="132" textLength="1158" lengthAdjust="spacingAndGlyphs">Puppet 9.57%</text></g><g transform="translate(15, 84)"><rect x="0.5" y="0.5" rx="2" width="15" height="15" fill="#00ADD8" stroke-width="1" stroke="#ffffff"/><text transform="scale(0.095)" x="263" y="132" textLength="806" lengthAdjust="spacingAndGlyphs">Go 2.41%</text></g><g transform="translate(15, 105)"><rect x="0.5" y="0.5" rx="2" width="15" height="15" fill="#3178c6" stroke-width="1" stroke="#ffffff"/><text transform="scale(0.095)" x="263" y="132" textLength="1462" lengthAdjust="spacingAndGlyphs">TypeScript 1.53%</text></g><g transform="translate(15, 126)"><rect x="0.5" y="0.5" rx="2" width="15" height="15" fill="#dea584" stroke-width="1" stroke="#ffffff"/><text transform="scale(0.095)" x="263" y="132" textLength="946" lengthAdjust="spacingAndGlyphs">Rust 1.52%</text></g><g transform="translate(15, 147)"><rect x="0.5" y="0.5" rx="2" width="15" height="15" fill="#ec915c" stroke-width="1" stroke="#ffffff"/><text transform="scale(0.095)" x="263" y="132" textLength="842" lengthAdjust="spacingAndGlyphs">Zig 1.00%</text></g><g transform="translate(15, 168)"><rect x="0.5" y="0.5" rx="2" width="15" height="15" fill="#f1e05a" stroke-width="1" stroke="#ffffff"/><text transform="scale(0.095)" x="263" y="132" textLength="1412" lengthAdjust="spacingAndGlyphs">JavaScript 0.76%</text><rect x="195.5" y="0.5" rx="2" width="15" height="15" fill="#959da5" stroke-width="1" stroke="#ffffff"/><text transform="scale(0.095)" x="2316" y="132" textLength="1047" lengthAdjust="spacingAndGlyphs">Other 1.23%</text></g></g></g></svg>